<svg viewBox="0 0 400 400" xmlns="http://www.w3.org/2000/svg"><rect fill="#e6e6e6" height="400" rx="100" width="400"/><path d="m352.64 200c0-30.27-25.71-55.87-71.02-70.22l-7.39-2.5c-13.82-46.19-40.81-75.53-74.23-75.53-31.17 0-57.52 24.97-71.98 68.66l-2.57 7.49c-47.56 13.11-78.09 39.64-78.09 72.1 0 30.27 25.71 55.87 70.7 70.22l7.71 2.5c13.82 46.19 40.81 75.53 74.23 75.53 31.49 0 57.52-25.28 71.98-68.97l2.25-6.87c47.88-13.42 78.41-39.64 78.41-72.41zm-69.09-11.86c7.71 4.06 11.57 7.49 12.85 9.05l2.25 2.5-2.25 2.81c-1.93 2.5-6.43 5.93-12.85 9.05.32-3.43.32-7.18.32-11.55 0-4.06 0-7.8-.32-11.86zm-83.55-124.22c40.81 0 71.66 58.36 71.66 136.08 0 6.55-.32 12.17-.64 17.48-8.36 3.12-18.32 5.93-30.21 8.11.96-7.49 1.29-15.6 1.29-25.28 0-66.48-24.42-107.67-42.1-107.67-8.68 0-18.64 10.61-26.35 27.15-11.89.94-23.14 2.5-33.74 4.68 12.85-38.39 34.71-60.55 60.09-60.55zm-29.56 136.08c0-9.36.32-17.48 1.29-24.66l.32-2.5c8.68-.94 17.67-1.56 27.64-1.56s18.32.31 25.71 1.25l2.25.31c.96 8.43 1.61 17.17 1.61 27.15s-.32 17.79-1.61 24.97l-.32 2.18c-8.68.94-17.67 1.56-27.64 1.56-9 0-20.57-.94-27.64-1.87-.64-8.11-1.61-16.85-1.61-26.84zm41.45-81.46c-3.53 0-7.39-.31-11.89-.31-4.18 0-8.03 0-12.21.31 4.18-7.8 8.03-11.55 9.32-12.48l2.57-1.87 2.57 1.87c2.89 1.87 6.11 6.24 9.64 12.48zm-152 81.46c0-39.64 60.09-69.29 139.79-69.29 6.75 0 12.53.31 18 .62 3.21 8.11 6.11 17.79 8.03 29.34-7.39-1.25-16.07-1.56-25.71-1.56-68.45 0-110.54 23.72-110.54 40.89 0 8.43 10.93 18.1 27.96 25.59.96 11.55 2.57 22.78 4.82 33.08-39.53-12.8-62.34-34.02-62.34-58.67zm56.56 11.86c-7.71-4.06-11.57-7.8-12.85-9.36l-1.93-2.5 1.93-2.5c1.93-2.5 6.43-5.93 12.85-9.36 0 3.75-.32 7.49-.32 11.86 0 4.06 0 7.8.32 11.86zm83.55 124.22c-40.49 0-71.34-58.36-71.34-136.08 0-6.55.32-12.48.64-17.79 8.03-3.12 18-5.93 30.21-7.8-.96 7.49-1.29 15.92-1.29 25.59 0 66.48 24.42 107.67 41.78 107.67 8.68 0 18.64-10.3 26.35-27.15 11.57-.94 22.82-2.5 33.42-4.68-12.53 38.08-34.38 60.24-59.77 60.24zm-12.21-54.62c3.86.31 7.71.31 11.89.31s8.03 0 12.21-.31c-4.18 7.18-7.71 10.92-9.32 12.17l-2.57 2.18-2.89-2.18c-2.25-1.87-5.78-5.93-9.32-12.17zm12.21-12.17c-6.75 0-12.53-.31-17.67-.62-3.21-8.11-6.11-17.79-8.03-29.34 7.71.62 18.32 1.25 26.03 1.25 51.09 0 110.87-17.79 110.87-40.89 0-8.43-10.6-18.1-27.96-25.59-.96-11.55-2.57-22.47-4.82-32.77 38.24 13.11 61.7 34.33 61.7 58.67 0 39.64-60.41 69.29-140.11 69.29z" fill="#524745"/></svg>