<svg xmlns="http://www.w3.org/2000/svg" width="16" height="16" fill="none" viewBox="0 0 16 16"><path stroke="#333" stroke-linecap="round" stroke-linejoin="round" d="M12.8 2H3.2C2.53726 2 2 2.55964 2 3.25V5.75C2 6.44036 2.53726 7 3.2 7H12.8C13.4627 7 14 6.44036 14 5.75V3.25C14 2.55964 13.4627 2 12.8 2Z"/><path stroke="#333" stroke-linecap="round" stroke-linejoin="round" d="M12.8 9H3.2C2.53726 9 2 9.55964 2 10.25V12.75C2 13.4404 2.53726 14 3.2 14H12.8C13.4627 14 14 13.4404 14 12.75V10.25C14 9.55964 13.4627 9 12.8 9Z"/><circle cx="4.5" cy="4.5" r=".5" fill="#333"/><circle cx="4.5" cy="11.5" r=".5" fill="#333"/></svg>