<svg xmlns="http://www.w3.org/2000/svg" width="16" height="16" fill="none" viewBox="0 0 16 16"><path stroke="#BBC3CD" stroke-linecap="round" stroke-linejoin="round" d="M3 4.40039H4.11111H13"/><path stroke="#BBC3CD" stroke-linecap="round" stroke-linejoin="round" d="M5.77799 4.4V3.2C5.77799 2.88174 5.89506 2.57652 6.10343 2.35147C6.31181 2.12643 6.59442 2 6.88911 2H9.11133C9.40601 2 9.68863 2.12643 9.897 2.35147C10.1054 2.57652 10.2224 2.88174 10.2224 3.2V4.4M11.8891 4.4V12.8C11.8891 13.1183 11.772 13.4235 11.5637 13.6485C11.3553 13.8736 11.0727 14 10.778 14H5.22244C4.92775 14 4.64514 13.8736 4.43676 13.6485C4.22839 13.4235 4.11133 13.1183 4.11133 12.8V4.4H11.8891Z"/><path stroke="#BBC3CD" stroke-linecap="round" stroke-linejoin="round" d="M6.88867 7.40039V11.0004"/><path stroke="#BBC3CD" stroke-linecap="round" stroke-linejoin="round" d="M9.11133 7.40039V11.0004"/></svg>