<svg viewBox="0 0 400 400" xmlns="http://www.w3.org/2000/svg"><rect fill="#f7e8d3" height="400" rx="100" width="400"/><path d="m188.9 246.46 118.41-68.89v-14.86l-118.41 68.89-17.78-10.13-65.06-37.6v-17.33l82.62 47.73 118.41-68.89-96.13-55.38-118.19 68.66v31.97 31.97 31.97l71.81 41.42 24.54 14.18 118.19-68.66v-14.86l-118.41 68.66-17.78-10.13-65.06-37.6v-17.11l58.31 33.54 24.54 14.18 118.19-68.66v-14.86l-118.19 68.89-17.78-10.13-65.06-37.6v-17.11l58.31 33.54 24.54 14.18zm14.41-133.27 63.71 36.92-12.38 7.2-63.93-36.92 12.61-7.2zm-22.74 13.28 63.71 36.92-12.61 7.2-63.71-36.92z" transform="matrix(1.04931799 0 0 1.04931799 -2.518363 -1.15425)"/></svg>