<?xml version="1.0" standalone="no"?>
<!DOCTYPE svg PUBLIC "-//W3C//DTD SVG 20010904//EN"
 "http://www.w3.org/TR/2001/REC-SVG-20010904/DTD/svg10.dtd">
<svg version="1.0" xmlns="http://www.w3.org/2000/svg"
 width="700.000000pt" height="700.000000pt" viewBox="0 0 700.000000 700.000000"
 preserveAspectRatio="xMidYMid meet">
<metadata>
Created by potrace 1.14, written by Peter Selinger 2001-2017
</metadata>
<g transform="translate(0.000000,700.000000) scale(0.100000,-0.100000)"
fill="#000000" stroke="none">
<path d="M3633 5254 c-109 -64 -227 -133 -263 -154 -36 -21 -218 -127 -405
-235 -342 -198 -434 -251 -535 -311 -30 -18 -165 -96 -300 -175 -135 -78 -276
-160 -315 -183 -38 -22 -88 -50 -110 -62 l-40 -22 -2 -883 -3 -884 121 -70
c67 -38 138 -79 158 -90 20 -11 67 -38 105 -60 37 -22 85 -49 105 -61 20 -11
167 -96 326 -189 160 -92 299 -173 310 -179 11 -6 82 -47 158 -91 76 -44 167
-96 202 -115 35 -19 70 -41 77 -48 6 -6 15 -12 19 -12 4 0 45 -22 92 -50 47
-27 90 -50 96 -50 5 0 104 54 218 121 114 67 226 131 248 144 22 12 177 102
345 200 168 98 319 185 335 195 46 27 336 195 375 218 33 20 109 63 191 110
20 11 69 40 110 64 41 25 128 75 194 113 66 38 128 75 138 83 15 13 17 34 17
150 0 130 -1 135 -18 119 -10 -10 -22 -17 -25 -17 -6 0 -396 -225 -996 -574
-62 -36 -115 -66 -118 -66 -2 0 -16 -8 -31 -19 -22 -15 -188 -112 -397 -231
-75 -43 -242 -140 -375 -218 -80 -47 -161 -94 -181 -104 l-35 -20 -155 87
c-85 48 -166 96 -181 106 -15 11 -30 19 -32 19 -3 0 -27 13 -53 29 -68 41
-1021 591 -1063 613 l-36 19 0 159 c0 158 0 159 21 146 11 -7 58 -35 105 -61
47 -26 227 -130 400 -230 173 -100 335 -193 360 -207 25 -14 69 -39 98 -57 29
-17 55 -31 57 -31 2 0 56 -32 121 -70 64 -39 118 -70 119 -70 2 0 56 -31 121
-70 l119 -69 40 23 c22 13 56 33 75 44 19 11 103 59 185 107 217 127 315 184
360 210 22 12 236 136 475 275 239 140 565 329 723 421 159 92 294 170 300
172 11 3 19 251 9 270 -2 4 -25 -4 -50 -20 -26 -15 -58 -33 -72 -40 -14 -8
-38 -22 -55 -32 -16 -10 -46 -27 -65 -38 -19 -11 -183 -107 -365 -213 -181
-106 -343 -201 -360 -210 -97 -55 -834 -485 -855 -499 -14 -8 -34 -21 -45 -27
-11 -6 -81 -46 -155 -89 -74 -43 -139 -78 -145 -78 -12 0 -172 91 -700 396
-209 121 -400 231 -425 245 -25 14 -74 42 -109 64 -34 21 -64 38 -66 38 -4 0
-209 120 -215 127 -3 2 -6 74 -6 159 l-2 153 22 -11 c11 -6 142 -80 290 -165
148 -85 290 -166 315 -181 25 -14 75 -42 110 -64 34 -21 64 -38 66 -38 4 0
201 -114 225 -130 8 -6 22 -13 30 -17 8 -4 49 -27 90 -51 74 -44 103 -61 178
-103 20 -12 72 -42 115 -66 66 -39 82 -44 101 -35 13 6 104 57 202 115 99 58
195 114 214 124 19 11 157 91 305 178 149 87 290 169 315 183 25 14 57 33 72
43 14 11 28 19 31 19 5 0 317 180 347 200 8 6 24 14 35 19 11 5 37 21 58 35
21 14 40 26 42 26 6 0 519 300 528 309 4 4 6 67 5 139 l-3 131 -130 -75 c-71
-42 -150 -88 -175 -102 -25 -14 -207 -120 -405 -235 -198 -116 -373 -218 -390
-227 -16 -10 -124 -73 -240 -140 -115 -68 -226 -132 -245 -142 -58 -33 -461
-268 -522 -304 -31 -19 -59 -34 -62 -34 -6 0 -387 216 -461 262 -16 10 -37 21
-45 25 -8 3 -39 21 -68 40 -29 18 -54 33 -57 33 -2 0 -68 38 -147 84 -79 46
-273 158 -433 250 -159 92 -294 172 -300 177 -6 6 -10 75 -11 164 l0 154 25
-14 c15 -7 125 -70 246 -140 121 -70 236 -136 255 -147 93 -53 891 -514 933
-539 26 -16 52 -29 57 -29 5 0 44 20 86 45 41 25 80 45 85 45 5 0 9 5 9 10 0
6 5 10 11 10 6 0 74 38 152 84 169 99 423 247 757 441 135 78 398 231 585 340
187 108 372 216 412 239 40 22 72 43 73 46 0 3 -26 20 -57 38 -32 18 -80 45
-108 62 -27 16 -57 33 -65 37 -8 4 -62 34 -120 68 -58 34 -377 218 -710 410
-333 191 -626 360 -652 376 l-46 28 -199 -115z m200 -395 c67 -40 138 -81 157
-91 19 -11 91 -53 160 -93 69 -40 140 -81 157 -91 505 -291 543 -314 543 -322
-1 -9 -211 -128 -222 -124 -7 2 -301 169 -338 193 -14 9 -297 171 -370 211
-19 11 -39 24 -45 28 -5 4 -35 21 -65 37 -30 17 -122 69 -203 116 l-148 86 68
39 c142 83 158 91 171 87 7 -3 68 -37 135 -76z m-268 -331 c110 -64 216 -125
235 -136 83 -47 528 -307 555 -324 17 -10 43 -24 58 -31 34 -17 36 -15 -100
-92 l-103 -57 -117 68 c-65 38 -127 74 -138 81 -11 7 -27 16 -35 20 -11 5
-257 147 -370 213 -34 19 -457 264 -482 278 l-27 15 45 29 c25 15 46 28 49 28
2 0 34 18 71 39 l67 39 46 -28 c25 -15 136 -79 246 -142z"/>
</g>
</svg>
